<svg version="1.1" id="Layer_1" xmlns="http://www.w3.org/2000/svg" xmlns:xlink="http://www.w3.org/1999/xlink" x="0px" y="0px"
	 width="100%" viewBox="0 0 256 256" enable-background="new 0 0 256 256" xml:space="preserve">
<path fill="#010000" opacity="1.000000" stroke="none" 
	d="
M1.000000,91.000000 
	C1.000000,60.666672 1.000000,30.833344 1.000000,1.000012 
	C86.333313,1.000008 171.666626,1.000008 256.999939,1.000004 
	C256.999969,86.333290 256.999969,171.666580 257.000000,256.999908 
	C171.666718,256.999939 86.333435,256.999939 1.000077,256.999969 
	C1.000000,201.833328 1.000000,146.666672 1.000000,91.000000 
M228.496597,244.639069 
	C233.759705,244.639069 239.022812,244.639069 244.326111,244.639069 
	C244.326111,183.893280 244.326111,123.852013 244.326111,63.624657 
	C167.311966,63.624657 90.610939,63.624657 13.762295,63.624657 
	C13.762295,124.048218 13.762295,184.207260 13.762295,244.639053 
	C85.274765,244.639053 156.386215,244.639053 228.496597,244.639069 
M58.811779,32.015770 
	C58.312931,32.590397 57.827839,33.649288 57.313084,33.663910 
	C52.731140,33.794060 48.143951,33.739651 43.066032,33.739651 
	C43.066032,26.671701 43.066032,20.254221 43.066032,13.675858 
	C32.999821,13.675858 23.445103,13.675858 13.690272,13.675858 
	C13.690272,28.723055 13.690272,43.430244 13.690272,58.345078 
	C90.716942,58.345078 167.390808,58.345078 244.330658,58.345078 
	C244.330658,43.320004 244.330658,28.612944 244.330658,13.630047 
	C234.436295,13.630047 224.873840,13.630047 214.623520,13.630047 
	C214.623520,20.456652 214.623520,27.003597 214.623520,33.484039 
	C209.181885,33.484039 204.434067,33.484039 199.180176,33.484039 
	C199.180176,26.733715 199.180176,20.315493 199.180176,13.738632 
	C152.171371,13.738632 105.677391,13.738632 58.850628,13.738632 
	C58.850628,19.786161 58.850628,25.435629 58.811779,32.015770 
M56.997906,28.280298 
	C56.997906,21.355946 56.997906,14.431591 56.997906,7.405519 
	C52.695656,7.405519 49.006294,7.405519 45.312466,7.405519 
	C45.312466,15.710992 45.312466,23.608175 45.312466,31.981833 
	C48.568443,31.981833 51.544193,32.200962 54.452839,31.855352 
	C55.389812,31.744022 56.150108,30.145716 56.997906,28.280298 
M206.532181,7.000972 
	C204.781357,7.080191 203.030548,7.159410 201.319427,7.236833 
	C201.319427,15.724528 201.319427,23.623161 201.319427,31.577381 
	C205.338089,31.577381 209.028305,31.577381 212.669373,31.577381 
	C212.669373,23.252752 212.669373,15.353808 212.669373,7.000974 
	C210.716934,7.000974 209.091888,7.000974 206.532181,7.000972 
z"/>
<path fill="#FAFAFA" opacity="1.000000" stroke="none" 
	d="
M227.997131,244.639069 
	C156.386215,244.639053 85.274765,244.639053 13.762295,244.639053 
	C13.762295,184.207260 13.762295,124.048218 13.762295,63.624657 
	C90.610939,63.624657 167.311966,63.624657 244.326111,63.624657 
	C244.326111,123.852013 244.326111,183.893280 244.326111,244.639069 
	C239.022812,244.639069 233.759705,244.639069 227.997131,244.639069 
M115.033218,139.934998 
	C115.033218,148.142914 115.033218,156.350815 115.033218,164.972717 
	C124.189308,164.972717 132.595078,164.972717 141.833084,164.887390 
	C142.173752,164.563141 142.809982,164.240723 142.811996,163.914383 
	C142.866135,155.164398 142.855103,146.414032 142.855103,137.112198 
	C134.003174,137.112198 125.581703,137.067276 117.162804,137.193909 
	C116.457611,137.204514 115.769775,138.369308 115.033218,139.934998 
M145.029526,109.935143 
	C145.029526,118.142921 145.029526,126.350708 145.029526,134.977905 
	C154.190125,134.977905 162.595444,134.977905 171.832275,134.888016 
	C172.173050,134.563095 172.809433,134.239990 172.811447,133.912964 
	C172.865631,125.163063 172.854584,116.412758 172.854584,107.111603 
	C164.001617,107.111603 155.580109,107.066582 147.161163,107.193367 
	C146.454422,107.204002 145.765060,108.369186 145.029526,109.935143 
M85.029533,109.935143 
	C85.029533,118.142929 85.029533,126.350716 85.029533,134.977905 
	C94.190140,134.977905 102.595451,134.977905 111.832298,134.888016 
	C112.173073,134.563095 112.809464,134.239990 112.811493,133.912979 
	C112.865669,125.163063 112.854607,116.412750 112.854607,107.111595 
	C104.001617,107.111595 95.580078,107.066566 87.161118,107.193352 
	C86.454384,107.203987 85.765030,108.369186 85.029533,109.935143 
M55.033226,109.934959 
	C55.033226,118.142883 55.033226,126.350800 55.033226,134.972717 
	C64.189301,134.972717 72.595078,134.972717 81.833107,134.887405 
	C82.173767,134.563141 82.809959,134.240707 82.811981,133.914352 
	C82.866112,125.164391 82.855080,116.414032 82.855080,107.112175 
	C74.003197,107.112175 65.581718,107.067268 57.162834,107.193909 
	C56.457630,107.204521 55.769783,108.369293 55.033226,109.934959 
M51.832275,134.888016 
	C52.173046,134.563095 52.809444,134.239990 52.811470,133.912979 
	C52.865643,125.163063 52.854591,116.412750 52.854591,107.111603 
	C44.001637,107.111603 35.580097,107.066582 27.161150,107.193367 
	C26.454407,107.204002 25.765051,108.369194 25.030018,109.935097 
	C25.030018,118.142883 25.030018,126.350662 25.030018,134.977905 
	C34.189213,134.977905 42.594978,134.977905 51.832275,134.888016 
M175.029526,109.935143 
	C175.029526,118.142921 175.029526,126.350708 175.029526,134.977905 
	C184.189224,134.977905 192.594986,134.977905 201.832275,134.888016 
	C202.173050,134.563095 202.809448,134.240005 202.811478,133.912979 
	C202.865646,125.163063 202.854584,116.412758 202.854584,107.111603 
	C194.001617,107.111603 185.580109,107.066566 177.161163,107.193367 
	C176.454422,107.204002 175.765060,108.369202 175.029526,109.935143 
M145.029526,169.935165 
	C145.029526,178.142944 145.029526,186.350708 145.029526,194.977905 
	C154.190125,194.977905 162.595444,194.977905 171.832275,194.888016 
	C172.173050,194.563095 172.809448,194.240005 172.811462,193.912979 
	C172.865646,185.163055 172.854584,176.412750 172.854584,167.111603 
	C164.001633,167.111603 155.580109,167.066589 147.161163,167.193375 
	C146.454422,167.204010 145.765060,168.369202 145.029526,169.935165 
M175.029984,169.935089 
	C175.029984,178.142868 175.029984,186.350662 175.029984,194.977905 
	C184.189209,194.977905 192.594986,194.977905 201.832275,194.888016 
	C202.173050,194.563095 202.809464,194.239990 202.811478,193.912979 
	C202.865662,185.163055 202.854584,176.412750 202.854584,167.111588 
	C194.002090,167.111588 185.580322,167.066544 177.161148,167.193344 
	C176.454422,167.203979 175.765076,168.369186 175.029984,169.935089 
M80.065582,77.041069 
	C72.948517,77.032570 65.829460,77.118484 58.715385,76.968285 
	C55.937073,76.909637 54.901379,77.821068 54.967842,80.660736 
	C55.142059,88.104630 55.079899,95.554047 55.217491,103.809265 
	C55.700977,104.188980 56.181232,104.894814 56.668427,104.899628 
	C64.282784,104.974953 71.907310,105.148216 79.503662,104.774216 
	C80.726357,104.714020 82.743576,102.169746 82.822441,100.690033 
	C83.183197,93.921097 83.072121,87.120094 82.897888,80.336586 
	C82.869873,79.246170 81.663124,78.186035 80.065582,77.041069 
M111.832298,104.888000 
	C112.173065,104.563072 112.809441,104.239983 112.811470,103.912956 
	C112.865639,95.163048 112.854599,86.412743 112.854599,77.111595 
	C104.001617,77.111595 95.580086,77.066574 87.161133,77.193359 
	C86.454399,77.204002 85.765045,78.369186 85.030029,79.935097 
	C85.030029,88.142883 85.030029,96.350670 85.030029,104.977890 
	C94.190125,104.977890 102.595444,104.977890 111.832298,104.888000 
M145.033737,199.934921 
	C145.033737,208.142838 145.033737,216.350769 145.033737,224.972717 
	C154.190186,224.972717 162.595520,224.972717 171.833084,224.887390 
	C172.173752,224.563141 172.809967,224.240723 172.811996,223.914383 
	C172.866119,215.164398 172.855103,206.414047 172.855103,197.112198 
	C164.003189,197.112198 155.581726,197.067261 147.162842,197.193909 
	C146.457626,197.204529 145.769775,198.369324 145.033737,199.934921 
M231.832275,104.888000 
	C232.173050,104.563080 232.809464,104.239990 232.811493,103.912964 
	C232.865677,95.163063 232.854599,86.412758 232.854599,77.111588 
	C224.001617,77.111588 215.580109,77.066566 207.161179,77.193367 
	C206.454437,77.204010 205.765091,78.369194 205.029984,79.935089 
	C205.029984,88.142876 205.029984,96.350662 205.029984,104.977890 
	C214.189209,104.977890 222.594986,104.977890 231.832275,104.888000 
M115.030022,199.935089 
	C115.030022,208.142883 115.030022,216.350677 115.030022,224.977905 
	C124.189217,224.977905 132.594986,224.977905 141.832291,224.888031 
	C142.173065,224.563110 142.809433,224.240005 142.811462,223.912979 
	C142.865631,215.163055 142.854584,206.412750 142.854584,197.111588 
	C134.001617,197.111588 125.580086,197.066544 117.161125,197.193329 
	C116.454391,197.203979 115.765038,198.369186 115.030022,199.935089 
M111.832314,224.888031 
	C112.173080,224.563095 112.809464,224.240005 112.811485,223.912979 
	C112.865662,215.163055 112.854607,206.412735 112.854607,197.111588 
	C104.001617,197.111588 95.580078,197.066528 87.161125,197.193329 
	C86.454391,197.203979 85.765038,198.369186 85.029526,199.935165 
	C85.029526,208.142944 85.029526,216.350723 85.029526,224.977905 
	C94.189240,224.977905 102.595001,224.977905 111.832314,224.888031 
M25.029537,199.935165 
	C25.029537,208.142944 25.029537,216.350708 25.029537,224.977905 
	C34.189232,224.977905 42.594986,224.977905 51.832283,224.888031 
	C52.173058,224.563095 52.809444,224.240005 52.811470,223.912979 
	C52.865643,215.163055 52.854595,206.412750 52.854595,197.111588 
	C44.001637,197.111588 35.580097,197.066528 27.161144,197.193329 
	C26.454401,197.203979 25.765043,198.369186 25.029537,199.935165 
M111.832298,164.888016 
	C112.173065,164.563095 112.809464,164.239990 112.811493,163.912979 
	C112.865662,155.163055 112.854607,146.412735 112.854607,137.111588 
	C104.002083,137.111588 95.580315,137.066544 87.161133,137.193344 
	C86.454391,137.203979 85.765038,138.369186 85.030022,139.935089 
	C85.030022,148.142883 85.030022,156.350677 85.030022,164.977905 
	C94.190125,164.977905 102.595444,164.977905 111.832298,164.888016 
M230.067474,107.057846 
	C223.075668,107.044968 216.079056,106.894508 209.096161,107.137596 
	C207.732071,107.185081 205.295074,108.718445 205.261612,109.636047 
	C204.960556,117.895027 205.085678,126.169540 205.085678,134.969742 
	C214.115784,134.969742 222.558319,134.969742 231.833282,134.888351 
	C232.206802,134.411362 232.901276,133.937515 232.905991,133.456909 
	C232.984940,125.410118 233.029602,117.361664 232.903046,109.316391 
	C232.891403,108.576263 231.665039,107.855255 230.067474,107.057846 
M208.932663,194.972153 
	C216.822876,194.972153 224.713104,194.972153 232.693542,194.972153 
	C232.693542,185.399796 232.693542,176.532455 232.693542,167.087341 
	C224.182526,167.087341 215.944489,167.048691 207.708969,167.174255 
	C207.159531,167.182632 206.629074,168.436752 206.031464,170.028473 
	C206.082596,174.960739 206.133743,179.893021 205.999405,185.737167 
	C206.831818,188.775238 204.105240,192.583313 208.932663,194.972153 
M231.825180,164.874588 
	C232.198746,164.393478 232.893509,163.915344 232.897995,163.430817 
	C232.972549,155.385513 233.012894,147.338547 232.882126,139.294861 
	C232.869843,138.539444 231.657120,137.803558 230.064651,137.030396 
	C222.926788,137.024979 215.785950,136.914185 208.653915,137.115326 
	C207.430466,137.149841 205.222092,138.483215 205.198456,139.268661 
	C204.945618,147.667450 205.041229,156.076721 205.041229,164.980789 
	C214.151611,164.980789 222.576126,164.980789 231.825180,164.874588 
M38.508980,194.989349 
	C70.989113,194.989349 103.469254,194.990677 135.949387,194.988281 
	C142.984131,194.987762 142.985413,194.981598 142.988922,187.728043 
	C142.991257,182.897675 142.665802,178.039459 143.078308,173.244583 
	C143.509506,168.232590 141.385605,166.899963 136.766006,166.947098 
	C120.610924,167.111954 104.453125,167.010727 88.296356,167.010666 
	C68.808296,167.010590 49.320156,166.986542 29.832291,167.048599 
	C27.921320,167.054688 25.064480,165.980576 25.041590,169.596405 
	C24.989204,177.871536 25.025024,186.147232 25.025024,194.989319 
	C29.611267,194.989319 33.562069,194.989319 38.508980,194.989349 
M161.500000,104.989334 
	C173.640808,104.989151 185.783569,105.094002 197.920166,104.867485 
	C199.602753,104.836082 202.654083,103.234222 202.700623,102.247520 
	C203.088776,94.019035 202.920990,85.764336 202.920990,77.010674 
	C200.469406,77.010674 198.677826,77.010674 196.886246,77.010674 
	C182.916000,77.010674 168.945740,77.010597 154.975494,77.010681 
	C143.333618,77.010742 131.689636,76.903404 120.052223,77.131371 
	C118.376320,77.164207 115.337921,78.746460 115.292412,79.721916 
	C114.908058,87.959679 115.073135,96.223061 115.073135,104.989311 
	C130.650818,104.989311 145.575409,104.989311 161.500000,104.989334 
M25.024269,162.208603 
	C26.061081,163.134384 27.090038,164.856720 28.135880,164.867035 
	C45.090561,165.034271 62.048058,165.046600 79.002403,164.862305 
	C80.322166,164.847961 82.723396,163.153534 82.759773,162.171021 
	C83.064377,153.945358 82.932968,145.703568 82.932968,137.028687 
	C64.287415,137.028687 46.365051,137.039474 28.442730,137.018143 
	C25.416695,137.014542 24.982700,138.881714 24.998829,141.314133 
	C25.042921,147.963379 25.013344,154.613113 25.024269,162.208603 
M168.198929,164.983826 
	C169.782990,163.980392 172.689072,163.040115 172.740494,161.963486 
	C173.127014,153.870880 172.951111,145.751404 172.951111,137.460449 
	C163.372711,137.460449 154.358383,137.460449 145.432404,137.460449 
	C145.432404,146.812042 145.432404,155.712463 145.432404,164.984436 
	C152.982574,164.984436 160.121155,164.984436 168.198929,164.983826 
M140.952042,134.818649 
	C141.584946,134.116165 142.757553,133.421921 142.768417,132.709946 
	C142.896500,124.312477 142.850739,115.912346 142.850739,107.045319 
	C134.166504,107.045319 126.059776,106.951904 117.961189,107.166122 
	C116.973030,107.192268 115.216095,108.848785 115.191086,109.786415 
	C114.971359,118.024490 115.063835,126.270889 115.063835,134.949615 
	C123.843033,134.949615 131.943573,134.949615 140.952042,134.818649 
M82.981873,212.475098 
	C82.981873,207.542862 82.981873,202.610641 82.981873,197.074829 
	C74.199699,197.074829 65.952461,197.000198 57.710922,197.182648 
	C56.822456,197.202316 55.229229,198.697571 55.210415,199.536346 
	C55.022430,207.916306 55.096279,216.302155 55.096279,224.981903 
	C61.036285,224.981903 66.166183,225.030472 71.294876,224.972488 
	C84.797478,224.819824 82.803520,226.797058 82.981873,212.475098 
M185.554657,137.015442 
	C183.064682,137.024216 180.532486,136.769791 178.103653,137.159561 
	C176.990936,137.338165 175.236053,138.760574 175.211685,139.658005 
	C174.987823,147.901840 175.079880,156.154266 175.079880,164.954163 
	C183.720276,164.954163 191.805756,165.068893 199.879608,164.814713 
	C200.935867,164.781464 202.786942,162.881348 202.820526,161.800888 
	C203.071213,153.733978 202.956757,145.655716 202.956757,137.015488 
	C197.076874,137.015488 191.807053,137.015488 185.554657,137.015442 
z"/>
<path fill="#F95050" opacity="1.000000" stroke="none" 
	d="
M58.831203,31.550434 
	C58.850628,25.435629 58.850628,19.786161 58.850628,13.738632 
	C105.677391,13.738632 152.171371,13.738632 199.180176,13.738632 
	C199.180176,20.315493 199.180176,26.733715 199.180176,33.484039 
	C204.434067,33.484039 209.181885,33.484039 214.623520,33.484039 
	C214.623520,27.003597 214.623520,20.456652 214.623520,13.630047 
	C224.873840,13.630047 234.436295,13.630047 244.330658,13.630047 
	C244.330658,28.612944 244.330658,43.320004 244.330658,58.345078 
	C167.390808,58.345078 90.716942,58.345078 13.690272,58.345078 
	C13.690272,43.430244 13.690272,28.723055 13.690272,13.675858 
	C23.445103,13.675858 32.999821,13.675858 43.066032,13.675858 
	C43.066032,20.254221 43.066032,26.671701 43.066032,33.739651 
	C48.143951,33.739651 52.731140,33.794060 57.313084,33.663910 
	C57.827839,33.649288 58.312931,32.590397 58.831203,31.550434 
z"/>
<path fill="#5A5A5A" opacity="1.000000" stroke="none" 
	d="
M56.994568,28.753979 
	C56.150108,30.145716 55.389812,31.744022 54.452839,31.855352 
	C51.544193,32.200962 48.568443,31.981833 45.312466,31.981833 
	C45.312466,23.608175 45.312466,15.710992 45.312466,7.405519 
	C49.006294,7.405519 52.695656,7.405519 56.997906,7.405519 
	C56.997906,14.431591 56.997906,21.355946 56.994568,28.753979 
z"/>
<path fill="#5A5A5A" opacity="1.000000" stroke="none" 
	d="
M206.999512,7.000973 
	C209.091888,7.000974 210.716934,7.000974 212.669373,7.000974 
	C212.669373,15.353808 212.669373,23.252752 212.669373,31.577381 
	C209.028305,31.577381 205.338089,31.577381 201.319427,31.577381 
	C201.319427,23.623161 201.319427,15.724528 201.319427,7.236833 
	C203.030548,7.159410 204.781357,7.080191 206.999512,7.000973 
z"/>
<path fill="#6571F3" opacity="1.000000" stroke="none" 
	d="
M206.184875,184.825287 
	C206.133743,179.893021 206.082596,174.960739 206.520508,169.524048 
	C214.900879,169.019623 222.792191,169.019623 230.648743,169.019623 
	C230.648743,177.405106 230.648743,184.959320 230.648743,192.971329 
	C222.878738,192.971329 215.443771,192.971329 208.014221,192.544739 
	C207.408051,189.687210 206.796463,187.256256 206.184875,184.825287 
z"/>
<path fill="#FEE3C0" opacity="1.000000" stroke="none" 
	d="
M38.010925,194.989334 
	C33.562069,194.989319 29.611267,194.989319 25.025024,194.989319 
	C25.025024,186.147232 24.989204,177.871536 25.041590,169.596405 
	C25.064480,165.980576 27.921320,167.054688 29.832291,167.048599 
	C49.320156,166.986542 68.808296,167.010590 88.296356,167.010666 
	C104.453125,167.010727 120.610924,167.111954 136.766006,166.947098 
	C141.385605,166.899963 143.509506,168.232590 143.078308,173.244583 
	C142.665802,178.039459 142.991257,182.897675 142.988922,187.728043 
	C142.985413,194.981598 142.984131,194.987762 135.949387,194.988281 
	C103.469254,194.990677 70.989113,194.989349 38.010925,194.989334 
M69.500000,169.001175 
	C55.441380,169.001175 41.382759,169.001175 27.363508,169.001175 
	C27.363508,177.418976 27.363508,184.985352 27.363508,192.575958 
	C65.373024,192.575958 103.018654,192.575958 140.636810,192.575958 
	C140.636810,184.581650 140.636810,177.015289 140.636810,169.001175 
	C117.018517,169.001175 93.759262,169.001175 69.500000,169.001175 
z"/>
<path fill="#FEE3C0" opacity="1.000000" stroke="none" 
	d="
M161.000000,104.989319 
	C145.575409,104.989311 130.650818,104.989311 115.073135,104.989311 
	C115.073135,96.223061 114.908058,87.959679 115.292412,79.721916 
	C115.337921,78.746460 118.376320,77.164207 120.052223,77.131371 
	C131.689636,76.903404 143.333618,77.010742 154.975494,77.010681 
	C168.945740,77.010597 182.916000,77.010674 196.886246,77.010674 
	C198.677826,77.010674 200.469406,77.010674 202.920990,77.010674 
	C202.920990,85.764336 203.088776,94.019035 202.700623,102.247520 
	C202.654083,103.234222 199.602753,104.836082 197.920166,104.867485 
	C185.783569,105.094002 173.640808,104.989151 161.000000,104.989319 
M188.487274,79.001205 
	C164.784409,79.001205 141.081528,79.001205 117.335037,79.001205 
	C117.335037,87.365089 117.335037,94.927910 117.335037,102.599518 
	C145.319427,102.599518 172.968216,102.599518 200.664078,102.599518 
	C200.664078,94.633049 200.664078,87.070183 200.664078,79.001205 
	C196.722824,79.001205 193.101410,79.001205 188.487274,79.001205 
z"/>
<path fill="#FEE3BF" opacity="1.000000" stroke="none" 
	d="
M25.018604,161.735626 
	C25.013344,154.613113 25.042921,147.963379 24.998829,141.314133 
	C24.982700,138.881714 25.416695,137.014542 28.442730,137.018143 
	C46.365051,137.039474 64.287415,137.028687 82.932968,137.028687 
	C82.932968,145.703568 83.064377,153.945358 82.759773,162.171021 
	C82.723396,163.153534 80.322166,164.847961 79.002403,164.862305 
	C62.048058,165.046600 45.090561,165.034271 28.135880,164.867035 
	C27.090038,164.856720 26.061081,163.134384 25.018604,161.735626 
M41.505283,162.998367 
	C54.551212,162.998367 67.597145,162.998367 80.662064,162.998367 
	C80.662064,154.620041 80.662064,147.062027 80.662064,139.409668 
	C62.669926,139.409668 45.016987,139.409668 27.338024,139.409668 
	C27.338024,147.380142 27.338024,154.938156 27.338024,162.998352 
	C31.945312,162.998352 36.227108,162.998352 41.505283,162.998367 
z"/>
<path fill="#C5C8F9" opacity="1.000000" stroke="none" 
	d="
M167.729340,164.984131 
	C160.121155,164.984436 152.982574,164.984436 145.432404,164.984436 
	C145.432404,155.712463 145.432404,146.812042 145.432404,137.460449 
	C154.358383,137.460449 163.372711,137.460449 172.951111,137.460449 
	C172.951111,145.751404 173.127014,153.870880 172.740494,161.963486 
	C172.689072,163.040115 169.782990,163.980392 167.729340,164.984131 
M165.364288,162.996475 
	C167.119858,162.916550 168.875427,162.836624 170.691711,162.753937 
	C170.691711,154.663742 170.691711,147.114853 170.691711,139.398834 
	C162.715927,139.398834 155.049301,139.398834 147.313446,139.398834 
	C147.313446,147.346878 147.313446,154.895874 147.313446,162.996475 
	C153.208801,162.996475 158.803497,162.996475 165.364288,162.996475 
z"/>
<path fill="#C5C8F9" opacity="1.000000" stroke="none" 
	d="
M140.498077,134.884125 
	C131.943573,134.949615 123.843033,134.949615 115.063835,134.949615 
	C115.063835,126.270889 114.971359,118.024490 115.191086,109.786415 
	C115.216095,108.848785 116.973030,107.192268 117.961189,107.166122 
	C126.059776,106.951904 134.166504,107.045319 142.850739,107.045319 
	C142.850739,115.912346 142.896500,124.312477 142.768417,132.709946 
	C142.757553,133.421921 141.584946,134.116165 140.498077,134.884125 
M140.740326,109.930901 
	C132.967392,109.509689 125.194450,109.088470 117.316315,108.661560 
	C117.316315,117.348671 117.316315,124.899452 117.316315,132.590118 
	C125.302917,132.590118 132.971710,132.590118 140.942566,132.590118 
	C140.942566,125.073242 140.942566,117.958382 140.740326,109.930901 
z"/>
<path fill="#C5DBCF" opacity="1.000000" stroke="none" 
	d="
M82.981842,212.968414 
	C82.803520,226.797058 84.797478,224.819824 71.294876,224.972488 
	C66.166183,225.030472 61.036285,224.981903 55.096279,224.981903 
	C55.096279,216.302155 55.022430,207.916306 55.210415,199.536346 
	C55.229229,198.697571 56.822456,197.202316 57.710922,197.182648 
	C65.952461,197.000198 74.199699,197.074829 82.981873,197.074829 
	C82.981873,202.610641 82.981873,207.542862 82.981842,212.968414 
M72.450317,222.996506 
	C75.187408,222.996506 77.924492,222.996506 80.666321,222.996506 
	C80.666321,214.611618 80.666321,207.065781 80.666321,199.422348 
	C72.667381,199.422348 65.004326,199.422348 57.335159,199.422348 
	C57.335159,207.391449 57.335159,214.937347 57.335159,222.996490 
	C62.258865,222.996490 66.861404,222.996490 72.450317,222.996506 
z"/>
<path fill="#C5C8F9" opacity="1.000000" stroke="none" 
	d="
M186.045944,137.015472 
	C191.807053,137.015488 197.076874,137.015488 202.956757,137.015488 
	C202.956757,145.655716 203.071213,153.733978 202.820526,161.800888 
	C202.786942,162.881348 200.935867,164.781464 199.879608,164.814713 
	C191.805756,165.068893 183.720276,164.954163 175.079880,164.954163 
	C175.079880,156.154266 174.987823,147.901840 175.211685,139.658005 
	C175.236053,138.760574 176.990936,137.338165 178.103653,137.159561 
	C180.532486,136.769791 183.064682,137.024216 186.045944,137.015472 
M195.364288,162.996460 
	C197.119858,162.916534 198.875427,162.836624 200.691711,162.753937 
	C200.691711,154.663742 200.691711,147.114853 200.691711,139.398834 
	C192.715927,139.398834 185.049301,139.398834 177.313446,139.398834 
	C177.313446,147.346878 177.313446,154.895874 177.313446,162.996475 
	C183.208801,162.996475 188.803497,162.996475 195.364288,162.996460 
z"/>
<path fill="#FEE2BE" opacity="1.000000" stroke="none" 
	d="
M231.000641,164.980789 
	C222.576126,164.980789 214.151611,164.980789 205.041229,164.980789 
	C205.041229,156.076721 204.945618,147.667450 205.198456,139.268661 
	C205.222092,138.483215 207.430466,137.149841 208.653915,137.115326 
	C215.785950,136.914185 222.926788,137.024979 230.530548,137.379883 
	C230.988739,138.177704 230.981049,138.626022 230.507629,139.048248 
	C222.474808,139.022156 214.907700,139.022156 207.346649,139.022156 
	C207.346649,147.389252 207.346649,154.947388 207.346649,162.992676 
	C215.452957,162.992676 223.225266,162.992676 230.997681,163.324127 
	C230.998764,164.097305 230.999710,164.539047 231.000641,164.980789 
z"/>
<path fill="#C4C7F9" opacity="1.000000" stroke="none" 
	d="
M208.008789,192.971329 
	C215.443771,192.971329 222.878738,192.971329 230.648743,192.971329 
	C230.648743,184.959320 230.648743,177.405106 230.648743,169.019623 
	C222.792191,169.019623 214.900879,169.019623 206.549683,169.065536 
	C206.629074,168.436752 207.159531,167.182632 207.708969,167.174255 
	C215.944489,167.048691 224.182526,167.087341 232.693542,167.087341 
	C232.693542,176.532455 232.693542,185.399796 232.693542,194.972153 
	C224.713104,194.972153 216.822876,194.972153 208.468475,194.635071 
	C208.005783,193.855774 208.007278,193.413544 208.008789,192.971329 
z"/>
<path fill="#C4DBCF" opacity="1.000000" stroke="none" 
	d="
M231.000839,134.969742 
	C222.558319,134.969742 214.115784,134.969742 205.085678,134.969742 
	C205.085678,126.169540 204.960556,117.895027 205.261612,109.636047 
	C205.295074,108.718445 207.732071,107.185081 209.096161,107.137596 
	C216.079056,106.894508 223.075668,107.044968 230.534164,107.401505 
	C231.001465,108.160660 231.002075,108.576157 230.533798,108.996918 
	C222.493805,109.002190 214.922699,109.002190 207.345139,109.002190 
	C207.345139,117.374496 207.345139,124.935944 207.345139,133.008362 
	C215.451736,133.008362 223.227203,133.008362 231.001282,133.335388 
	C231.000198,134.098190 231.000519,134.533966 231.000839,134.969742 
z"/>
<path fill="#C4C7F9" opacity="1.000000" stroke="none" 
	d="
M85.067612,138.997986 
	C85.765038,138.369186 86.454391,137.203979 87.161133,137.193344 
	C95.580315,137.066544 104.002083,137.111588 112.854607,137.111588 
	C112.854607,146.412735 112.865662,155.163055 112.811493,163.912979 
	C112.809464,164.239990 112.173065,164.563095 111.415703,164.605164 
	C111.000458,163.884811 111.001816,163.447342 110.999115,162.540314 
	C110.995056,154.528885 110.995056,146.986969 110.995056,139.023651 
	C102.544395,139.023651 94.805702,139.023651 86.733490,139.017288 
	C85.955849,139.006607 85.511734,139.002289 85.067612,138.997986 
z"/>
<path fill="#C4C7F9" opacity="1.000000" stroke="none" 
	d="
M25.067608,198.997986 
	C25.765043,198.369186 26.454401,197.203979 27.161144,197.193329 
	C35.580097,197.066528 44.001637,197.111588 52.854595,197.111588 
	C52.854595,206.412750 52.865643,215.163055 52.811470,223.912979 
	C52.809444,224.240005 52.173058,224.563095 51.415695,224.605164 
	C51.000462,223.884796 51.001820,223.447327 50.999119,222.540314 
	C50.995060,214.528854 50.995060,206.986954 50.995060,199.023651 
	C42.544388,199.023651 34.805691,199.023651 26.733479,199.017303 
	C25.955845,199.006622 25.511726,199.002304 25.067608,198.997986 
z"/>
<path fill="#C4C7F9" opacity="1.000000" stroke="none" 
	d="
M85.067604,198.997986 
	C85.765038,198.369186 86.454391,197.203979 87.161125,197.193329 
	C95.580078,197.066528 104.001617,197.111588 112.854607,197.111588 
	C112.854607,206.412735 112.865662,215.163055 112.811485,223.912979 
	C112.809464,224.240005 112.173080,224.563095 111.415710,224.605164 
	C111.000458,223.884811 111.001816,223.447342 110.999115,222.540314 
	C110.995056,214.528885 110.995056,206.986969 110.995056,199.023651 
	C102.544395,199.023651 94.805702,199.023651 86.733490,199.017303 
	C85.955849,199.006622 85.511726,199.002304 85.067604,198.997986 
z"/>
<path fill="#C4C7F9" opacity="1.000000" stroke="none" 
	d="
M115.067612,198.997986 
	C115.765038,198.369186 116.454391,197.203979 117.161125,197.193329 
	C125.580086,197.066544 134.001617,197.111588 142.854584,197.111588 
	C142.854584,206.412750 142.865631,215.163055 142.811462,223.912979 
	C142.809433,224.240005 142.173065,224.563110 141.415710,224.605164 
	C141.000473,223.884796 141.001816,223.447327 140.999115,222.540314 
	C140.995071,214.528870 140.995071,206.986969 140.995071,199.023651 
	C132.544388,199.023651 124.805702,199.023651 116.733490,199.017303 
	C115.955849,199.006638 115.511734,199.002319 115.067612,198.997986 
z"/>
<path fill="#C4C7F9" opacity="1.000000" stroke="none" 
	d="
M205.067657,78.997986 
	C205.765091,78.369194 206.454437,77.204010 207.161179,77.193367 
	C215.580109,77.066566 224.001617,77.111588 232.854599,77.111588 
	C232.854599,86.412758 232.865677,95.163063 232.811493,103.912964 
	C232.809464,104.239990 232.173050,104.563080 231.415710,104.605141 
	C231.000473,103.884811 231.001816,103.447342 230.999115,102.540329 
	C230.995071,94.528877 230.995071,86.986961 230.995071,79.023712 
	C222.544357,79.023712 214.805664,79.023712 206.733459,79.017365 
	C205.955856,79.006668 205.511749,79.002327 205.067657,78.997986 
z"/>
<path fill="#C4DBCE" opacity="1.000000" stroke="none" 
	d="
M145.073868,198.997864 
	C145.769775,198.369324 146.457626,197.204529 147.162842,197.193909 
	C155.581726,197.067261 164.003189,197.112198 172.855103,197.112198 
	C172.855103,206.414047 172.866119,215.164398 172.811996,223.914383 
	C172.809967,224.240723 172.173752,224.563141 171.416199,224.604080 
	C171.001175,223.885666 171.003021,223.450577 171.000198,222.545395 
	C170.995529,214.533356 170.995529,206.991409 170.995529,199.022507 
	C162.539902,199.022507 154.801788,199.022507 146.731735,199.016479 
	C145.957825,199.006256 145.515839,199.002060 145.073868,198.997864 
z"/>
<path fill="#C4C7F9" opacity="1.000000" stroke="none" 
	d="
M85.067619,78.997986 
	C85.765045,78.369186 86.454399,77.204002 87.161133,77.193359 
	C95.580086,77.066574 104.001617,77.111595 112.854599,77.111595 
	C112.854599,86.412743 112.865639,95.163048 112.811470,103.912956 
	C112.809441,104.239983 112.173065,104.563072 111.415703,104.605141 
	C111.000458,103.884811 111.001808,103.447350 110.999107,102.540344 
	C110.995056,94.528877 110.995056,86.986961 110.995056,79.023712 
	C102.544365,79.023712 94.805656,79.023712 86.733444,79.017365 
	C85.955833,79.006668 85.511726,79.002327 85.067619,78.997986 
z"/>
<path fill="#C4C8F9" opacity="1.000000" stroke="none" 
	d="
M81.001266,77.111900 
	C81.663124,78.186035 82.869873,79.246170 82.897888,80.336586 
	C83.072121,87.120094 83.183197,93.921097 82.822441,100.690033 
	C82.743576,102.169746 80.726357,104.714020 79.503662,104.774216 
	C71.907310,105.148216 64.282784,104.974953 56.668427,104.899628 
	C56.181232,104.894814 55.700977,104.188980 55.475800,103.405060 
	C56.151062,103.002197 56.568016,103.003540 57.454994,103.001205 
	C65.478539,102.997536 73.032074,102.997536 81.004875,102.997536 
	C81.004875,94.500008 81.004875,86.742493 81.003387,78.672256 
	C81.001686,77.943649 81.001480,77.527779 81.001266,77.111900 
z"/>
<path fill="#C4C7F9" opacity="1.000000" stroke="none" 
	d="
M175.067657,168.997986 
	C175.765076,168.369186 176.454422,167.203979 177.161148,167.193344 
	C185.580322,167.066544 194.002090,167.111588 202.854584,167.111588 
	C202.854584,176.412750 202.865662,185.163055 202.811478,193.912979 
	C202.809464,194.239990 202.173050,194.563095 201.415680,194.605148 
	C201.000458,193.884796 201.001816,193.447327 200.999115,192.540314 
	C200.995071,184.528870 200.995071,176.986954 200.995071,169.023651 
	C192.543381,169.023651 184.805191,169.023651 176.733475,169.017303 
	C175.955856,169.006638 175.511765,169.002319 175.067657,168.997986 
z"/>
<path fill="#C4C7F9" opacity="1.000000" stroke="none" 
	d="
M145.067627,168.997986 
	C145.765060,168.369202 146.454422,167.204010 147.161163,167.193375 
	C155.580109,167.066589 164.001633,167.111603 172.854584,167.111603 
	C172.854584,176.412750 172.865646,185.163055 172.811462,193.912979 
	C172.809448,194.240005 172.173050,194.563095 171.415695,194.605148 
	C171.000458,193.884796 171.001816,193.447327 170.999115,192.540314 
	C170.995071,184.528870 170.995071,176.986954 170.995071,169.023651 
	C162.543381,169.023651 154.805191,169.023651 146.733475,169.017303 
	C145.955856,169.006622 145.511734,169.002304 145.067627,168.997986 
z"/>
<path fill="#C4C7F9" opacity="1.000000" stroke="none" 
	d="
M175.067627,108.997986 
	C175.765060,108.369202 176.454422,107.204002 177.161163,107.193367 
	C185.580109,107.066566 194.001617,107.111603 202.854584,107.111603 
	C202.854584,116.412758 202.865646,125.163063 202.811478,133.912979 
	C202.809448,134.240005 202.173050,134.563095 201.415695,134.605148 
	C201.000458,133.884796 201.001816,133.447327 200.999115,132.540298 
	C200.995071,124.528854 200.995071,116.986946 200.995071,109.023712 
	C192.544357,109.023712 184.805664,109.023712 176.733444,109.017365 
	C175.955826,109.006668 175.511734,109.002327 175.067627,108.997986 
z"/>
<path fill="#C4C7F9" opacity="1.000000" stroke="none" 
	d="
M25.067619,108.997986 
	C25.765051,108.369194 26.454407,107.204002 27.161150,107.193367 
	C35.580097,107.066582 44.001637,107.111603 52.854591,107.111603 
	C52.854591,116.412750 52.865643,125.163063 52.811470,133.912979 
	C52.809444,134.239990 52.173046,134.563095 51.415688,134.605148 
	C51.000462,133.884796 51.001820,133.447327 50.999119,132.540298 
	C50.995060,124.528847 50.995060,116.986946 50.995060,109.023712 
	C42.544357,109.023712 34.805656,109.023712 26.733452,109.017365 
	C25.955835,109.006668 25.511728,109.002327 25.067619,108.997986 
z"/>
<path fill="#C4DBCE" opacity="1.000000" stroke="none" 
	d="
M55.073868,108.997849 
	C55.769783,108.369293 56.457630,107.204521 57.162834,107.193909 
	C65.581718,107.067268 74.003197,107.112175 82.855080,107.112175 
	C82.855080,116.414032 82.866112,125.164391 82.811981,133.914352 
	C82.809959,134.240707 82.173767,134.563141 81.416222,134.604095 
	C81.001183,133.885666 81.003036,133.450577 81.000206,132.545395 
	C80.995522,124.533356 80.995522,116.991402 80.995522,109.022469 
	C72.540955,109.022469 64.802322,109.022469 56.731747,109.016457 
	C55.957825,109.006248 55.515846,109.002052 55.073868,108.997849 
z"/>
<path fill="#C4C7F9" opacity="1.000000" stroke="none" 
	d="
M85.067596,108.997986 
	C85.765030,108.369186 86.454384,107.203987 87.161118,107.193352 
	C95.580078,107.066566 104.001617,107.111595 112.854607,107.111595 
	C112.854607,116.412750 112.865669,125.163063 112.811493,133.912979 
	C112.809464,134.239990 112.173073,134.563095 111.415710,134.605164 
	C111.000465,133.884811 111.001816,133.447342 110.999115,132.540314 
	C110.995056,124.528870 110.995056,116.986954 110.995056,109.023712 
	C102.544365,109.023712 94.805656,109.023712 86.733444,109.017365 
	C85.955826,109.006668 85.511711,109.002327 85.067596,108.997986 
z"/>
<path fill="#C4C7F9" opacity="1.000000" stroke="none" 
	d="
M145.067627,108.997986 
	C145.765060,108.369186 146.454422,107.204002 147.161163,107.193367 
	C155.580109,107.066582 164.001617,107.111603 172.854584,107.111603 
	C172.854584,116.412758 172.865631,125.163063 172.811447,133.912964 
	C172.809433,134.239990 172.173050,134.563095 171.415695,134.605148 
	C171.000473,133.884796 171.001831,133.447327 170.999115,132.540298 
	C170.995071,124.528854 170.995071,116.986946 170.995071,109.023712 
	C162.544357,109.023712 154.805664,109.023712 146.733444,109.017365 
	C145.955826,109.006668 145.511734,109.002327 145.067627,108.997986 
z"/>
<path fill="#C4DBCE" opacity="1.000000" stroke="none" 
	d="
M115.073868,138.997879 
	C115.769775,138.369308 116.457611,137.204514 117.162804,137.193909 
	C125.581703,137.067276 134.003174,137.112198 142.855103,137.112198 
	C142.855103,146.414032 142.866135,155.164398 142.811996,163.914383 
	C142.809982,164.240723 142.173752,164.563141 141.416214,164.604080 
	C141.001190,163.885666 141.003036,163.450577 141.000214,162.545395 
	C140.995529,154.533356 140.995529,146.991409 140.995529,139.022507 
	C132.540939,139.022507 124.802307,139.022507 116.731735,139.016479 
	C115.957825,139.006271 115.515846,139.002075 115.073868,138.997879 
z"/>
<path fill="#C5C8F9" opacity="1.000000" stroke="none" 
	d="
M111.003166,223.009857 
	C111.001816,223.447342 111.000458,223.884811 110.999939,224.650101 
	C102.595001,224.977905 94.189240,224.977905 85.029526,224.977905 
	C85.029526,216.350723 85.029526,208.142944 85.048569,199.466583 
	C85.511726,199.002304 85.955849,199.006622 86.709518,199.483276 
	C87.019073,207.501434 87.019073,215.047272 87.019073,223.009857 
	C95.499908,223.009857 103.251541,223.009857 111.003166,223.009857 
z"/>
<path fill="#C5C8F9" opacity="1.000000" stroke="none" 
	d="
M56.984974,103.004875 
	C56.568016,103.003540 56.151062,103.002197 55.423023,103.001060 
	C55.079899,95.554047 55.142059,88.104630 54.967842,80.660736 
	C54.901379,77.821068 55.937073,76.909637 58.715385,76.968285 
	C65.829460,77.118484 72.948517,77.032570 80.533432,77.076485 
	C81.001480,77.527779 81.001686,77.943649 80.534294,78.679337 
	C72.515686,78.999138 64.964676,78.999138 56.984974,78.999138 
	C56.984974,87.495689 56.984974,95.250282 56.984974,103.004875 
z"/>
<path fill="#C5C8F9" opacity="1.000000" stroke="none" 
	d="
M115.048813,199.466553 
	C115.511734,199.002319 115.955849,199.006638 116.709518,199.483276 
	C117.019073,207.501434 117.019073,215.047287 117.019073,223.009842 
	C125.500443,223.009842 133.251816,223.009842 141.003174,223.009842 
	C141.001816,223.447327 141.000473,223.884796 140.999939,224.650085 
	C132.594986,224.977905 124.189217,224.977905 115.030022,224.977905 
	C115.030022,216.350677 115.030022,208.142883 115.048813,199.466553 
z"/>
<path fill="#C5C8F9" opacity="1.000000" stroke="none" 
	d="
M51.003178,223.009842 
	C51.001820,223.447327 51.000462,223.884796 50.999924,224.650085 
	C42.594986,224.977905 34.189232,224.977905 25.029537,224.977905 
	C25.029537,216.350708 25.029537,208.142944 25.048573,199.466583 
	C25.511726,199.002304 25.955845,199.006622 26.709515,199.483276 
	C27.019068,207.501434 27.019068,215.047256 27.019068,223.009842 
	C35.499928,223.009842 43.251553,223.009842 51.003178,223.009842 
z"/>
<path fill="#C5C8F9" opacity="1.000000" stroke="none" 
	d="
M25.048819,109.466537 
	C25.511728,109.002327 25.955835,109.006668 26.709501,109.483322 
	C27.019058,117.501457 27.019058,125.047287 27.019058,133.009842 
	C35.499939,133.009842 43.251556,133.009842 51.003178,133.009842 
	C51.001820,133.447327 51.000462,133.884796 50.999924,134.650085 
	C42.594978,134.977905 34.189213,134.977905 25.030018,134.977905 
	C25.030018,126.350662 25.030018,118.142883 25.048819,109.466537 
z"/>
<path fill="#C5DBCF" opacity="1.000000" stroke="none" 
	d="
M145.053802,199.466400 
	C145.515839,199.002060 145.957825,199.006256 146.709045,199.482574 
	C147.018311,207.499634 147.018311,215.044556 147.018311,223.015472 
	C155.503647,223.015472 163.254257,223.015472 171.004883,223.015472 
	C171.003021,223.450577 171.001175,223.885666 171.000092,224.646744 
	C162.595520,224.972717 154.190186,224.972717 145.033737,224.972717 
	C145.033737,216.350769 145.033737,208.142838 145.053802,199.466400 
z"/>
<path fill="#C5DBCF" opacity="1.000000" stroke="none" 
	d="
M81.004883,133.015472 
	C81.003036,133.450577 81.001183,133.885666 81.000099,134.646744 
	C72.595078,134.972717 64.189301,134.972717 55.033226,134.972717 
	C55.033226,126.350800 55.033226,118.142883 55.053547,109.466400 
	C55.515846,109.002052 55.957825,109.006248 56.709061,109.482559 
	C57.018318,117.499603 57.018318,125.044533 57.018318,133.015472 
	C65.503616,133.015472 73.254250,133.015472 81.004883,133.015472 
z"/>
<path fill="#C5C8F9" opacity="1.000000" stroke="none" 
	d="
M111.003174,133.009857 
	C111.001816,133.447342 111.000465,133.884811 110.999939,134.650101 
	C102.595451,134.977905 94.190140,134.977905 85.029533,134.977905 
	C85.029533,126.350716 85.029533,118.142929 85.048569,109.466568 
	C85.511711,109.002327 85.955826,109.006668 86.709503,109.483322 
	C87.019066,117.501465 87.019066,125.047295 87.019066,133.009857 
	C95.499924,133.009857 103.251541,133.009857 111.003174,133.009857 
z"/>
<path fill="#C5C8F9" opacity="1.000000" stroke="none" 
	d="
M175.048828,169.466553 
	C175.511765,169.002319 175.955856,169.006638 176.709518,169.483276 
	C177.019073,177.501434 177.019073,185.047256 177.019073,193.009842 
	C185.500458,193.009842 193.251816,193.009842 201.003174,193.009842 
	C201.001816,193.447327 201.000458,193.884796 200.999924,194.650085 
	C192.594986,194.977905 184.189209,194.977905 175.029984,194.977905 
	C175.029984,186.350662 175.029984,178.142868 175.048828,169.466553 
z"/>
<path fill="#C5C8F9" opacity="1.000000" stroke="none" 
	d="
M171.003174,193.009842 
	C171.001816,193.447327 171.000458,193.884796 170.999939,194.650085 
	C162.595444,194.977905 154.190125,194.977905 145.029526,194.977905 
	C145.029526,186.350708 145.029526,178.142944 145.048584,169.466583 
	C145.511734,169.002304 145.955856,169.006622 146.709518,169.483276 
	C147.019073,177.501434 147.019073,185.047256 147.019073,193.009842 
	C155.500458,193.009842 163.251816,193.009842 171.003174,193.009842 
z"/>
<path fill="#C5C8F9" opacity="1.000000" stroke="none" 
	d="
M85.048828,79.466537 
	C85.511726,79.002327 85.955833,79.006668 86.709503,79.483322 
	C87.019066,87.501457 87.019066,95.047272 87.019066,103.009880 
	C95.499939,103.009880 103.251549,103.009880 111.003159,103.009880 
	C111.001808,103.447350 111.000458,103.884811 110.999939,104.650085 
	C102.595444,104.977890 94.190125,104.977890 85.030029,104.977890 
	C85.030029,96.350670 85.030029,88.142883 85.048828,79.466537 
z"/>
<path fill="#C5C8F9" opacity="1.000000" stroke="none" 
	d="
M171.003174,133.009842 
	C171.001831,133.447327 171.000473,133.884796 170.999939,134.650085 
	C162.595444,134.977905 154.190125,134.977905 145.029526,134.977905 
	C145.029526,126.350708 145.029526,118.142921 145.048584,109.466568 
	C145.511734,109.002327 145.955826,109.006668 146.709503,109.483322 
	C147.019058,117.501457 147.019058,125.047287 147.019058,133.009842 
	C155.499939,133.009842 163.251556,133.009842 171.003174,133.009842 
z"/>
<path fill="#C5C8F9" opacity="1.000000" stroke="none" 
	d="
M205.048828,79.466537 
	C205.511749,79.002327 205.955856,79.006668 206.709503,79.483322 
	C207.019058,87.501465 207.019058,95.047287 207.019058,103.009872 
	C215.499924,103.009872 223.251541,103.009872 231.003174,103.009872 
	C231.001816,103.447342 231.000473,103.884811 230.999939,104.650085 
	C222.594986,104.977890 214.189209,104.977890 205.029984,104.977890 
	C205.029984,96.350662 205.029984,88.142876 205.048828,79.466537 
z"/>
<path fill="#C5DBCF" opacity="1.000000" stroke="none" 
	d="
M141.004883,163.015472 
	C141.003036,163.450577 141.001190,163.885666 141.000092,164.646744 
	C132.595078,164.972717 124.189308,164.972717 115.033218,164.972717 
	C115.033218,156.350815 115.033218,148.142914 115.053543,139.466431 
	C115.515846,139.002075 115.957825,139.006271 116.709061,139.482590 
	C117.018326,147.499634 117.018326,155.044556 117.018326,163.015472 
	C125.503632,163.015472 133.254257,163.015472 141.004883,163.015472 
z"/>
<path fill="#C5C8F9" opacity="1.000000" stroke="none" 
	d="
M85.048813,139.466522 
	C85.511734,139.002289 85.955849,139.006607 86.709518,139.483261 
	C87.019073,147.501434 87.019073,155.047272 87.019073,163.009857 
	C95.499908,163.009857 103.251541,163.009857 111.003166,163.009857 
	C111.001816,163.447342 111.000458,163.884811 110.999939,164.650101 
	C102.595444,164.977905 94.190125,164.977905 85.030022,164.977905 
	C85.030022,156.350677 85.030022,148.142883 85.048813,139.466522 
z"/>
<path fill="#C5C8F9" opacity="1.000000" stroke="none" 
	d="
M201.003174,133.009842 
	C201.001816,133.447327 201.000458,133.884796 200.999939,134.650085 
	C192.594986,134.977905 184.189224,134.977905 175.029526,134.977905 
	C175.029526,126.350708 175.029526,118.142921 175.048584,109.466568 
	C175.511734,109.002327 175.955826,109.006668 176.709503,109.483322 
	C177.019058,117.501457 177.019058,125.047287 177.019058,133.009842 
	C185.499939,133.009842 193.251556,133.009842 201.003174,133.009842 
z"/>
<path fill="#C3DACE" opacity="1.000000" stroke="none" 
	d="
M231.417053,134.929047 
	C231.000519,134.533966 231.000198,134.098190 230.996826,132.865921 
	C230.996719,124.376839 230.999695,116.684242 231.002670,108.991653 
	C231.002075,108.576157 231.001465,108.160660 231.001785,107.435265 
	C231.665039,107.855255 232.891403,108.576263 232.903046,109.316391 
	C233.029602,117.361664 232.984940,125.410118 232.905991,133.456909 
	C232.901276,133.937515 232.206802,134.411362 231.417053,134.929047 
z"/>
<path fill="#FEE2BD" opacity="1.000000" stroke="none" 
	d="
M230.973358,139.074341 
	C230.981049,138.626022 230.988739,138.177704 230.999084,137.393982 
	C231.657120,137.803558 232.869843,138.539444 232.882126,139.294861 
	C233.012894,147.338547 232.972549,155.385513 232.897995,163.430817 
	C232.893509,163.915344 232.198746,164.393478 231.412903,164.927689 
	C230.999710,164.539047 230.998764,164.097305 230.995514,162.856201 
	C230.986588,154.396011 230.979980,146.735184 230.973358,139.074341 
z"/>
<path fill="#BEC2F8" opacity="1.000000" stroke="none" 
	d="
M208.014221,192.544739 
	C208.007278,193.413544 208.005783,193.855774 207.999542,194.628967 
	C204.105240,192.583313 206.831818,188.775238 206.092133,185.281219 
	C206.796463,187.256256 207.408051,189.687210 208.014221,192.544739 
z"/>
<path fill="#FCC145" opacity="1.000000" stroke="none" 
	d="
M70.000000,169.001175 
	C93.759262,169.001175 117.018517,169.001175 140.636810,169.001175 
	C140.636810,177.015289 140.636810,184.581650 140.636810,192.575958 
	C103.018654,192.575958 65.373024,192.575958 27.363508,192.575958 
	C27.363508,184.985352 27.363508,177.418976 27.363508,169.001175 
	C41.382759,169.001175 55.441380,169.001175 70.000000,169.001175 
z"/>
<path fill="#FCC145" opacity="1.000000" stroke="none" 
	d="
M188.983643,79.001205 
	C193.101410,79.001205 196.722824,79.001205 200.664078,79.001205 
	C200.664078,87.070183 200.664078,94.633049 200.664078,102.599518 
	C172.968216,102.599518 145.319427,102.599518 117.335037,102.599518 
	C117.335037,94.927910 117.335037,87.365089 117.335037,79.001205 
	C141.081528,79.001205 164.784409,79.001205 188.983643,79.001205 
z"/>
<path fill="#FCC145" opacity="1.000000" stroke="none" 
	d="
M41.007095,162.998352 
	C36.227108,162.998352 31.945312,162.998352 27.338024,162.998352 
	C27.338024,154.938156 27.338024,147.380142 27.338024,139.409668 
	C45.016987,139.409668 62.669926,139.409668 80.662064,139.409668 
	C80.662064,147.062027 80.662064,154.620041 80.662064,162.998367 
	C67.597145,162.998367 54.551212,162.998367 41.007095,162.998352 
z"/>
<path fill="#6571F3" opacity="1.000000" stroke="none" 
	d="
M164.881256,162.996475 
	C158.803497,162.996475 153.208801,162.996475 147.313446,162.996475 
	C147.313446,154.895874 147.313446,147.346878 147.313446,139.398834 
	C155.049301,139.398834 162.715927,139.398834 170.691711,139.398834 
	C170.691711,147.114853 170.691711,154.663742 170.691711,162.753937 
	C168.875427,162.836624 167.119858,162.916550 164.881256,162.996475 
z"/>
<path fill="#6571F3" opacity="1.000000" stroke="none" 
	d="
M140.841446,110.387215 
	C140.942566,117.958382 140.942566,125.073242 140.942566,132.590118 
	C132.971710,132.590118 125.302917,132.590118 117.316315,132.590118 
	C117.316315,124.899452 117.316315,117.348671 117.316315,108.661560 
	C125.194450,109.088470 132.967392,109.509689 140.841446,110.387215 
z"/>
<path fill="#65AF8C" opacity="1.000000" stroke="none" 
	d="
M71.957130,222.996490 
	C66.861404,222.996490 62.258865,222.996490 57.335159,222.996490 
	C57.335159,214.937347 57.335159,207.391449 57.335159,199.422348 
	C65.004326,199.422348 72.667381,199.422348 80.666321,199.422348 
	C80.666321,207.065781 80.666321,214.611618 80.666321,222.996506 
	C77.924492,222.996506 75.187408,222.996506 71.957130,222.996490 
z"/>
<path fill="#6571F3" opacity="1.000000" stroke="none" 
	d="
M194.881256,162.996460 
	C188.803497,162.996475 183.208801,162.996475 177.313446,162.996475 
	C177.313446,154.895874 177.313446,147.346878 177.313446,139.398834 
	C185.049301,139.398834 192.715927,139.398834 200.691711,139.398834 
	C200.691711,147.114853 200.691711,154.663742 200.691711,162.753937 
	C198.875427,162.836624 197.119858,162.916534 194.881256,162.996460 
z"/>
<path fill="#FCC145" opacity="1.000000" stroke="none" 
	d="
M230.507645,139.048248 
	C230.979980,146.735184 230.986588,154.396011 230.995377,162.524765 
	C223.225266,162.992676 215.452957,162.992676 207.346649,162.992676 
	C207.346649,154.947388 207.346649,147.389252 207.346649,139.022156 
	C214.907700,139.022156 222.474808,139.022156 230.507645,139.048248 
z"/>
<path fill="#65AF8C" opacity="1.000000" stroke="none" 
	d="
M230.533798,108.996918 
	C230.999695,116.684242 230.996719,124.376839 230.998215,132.538895 
	C223.227203,133.008362 215.451736,133.008362 207.345139,133.008362 
	C207.345139,124.935944 207.345139,117.374496 207.345139,109.002190 
	C214.922699,109.002190 222.493805,109.002190 230.533798,108.996918 
z"/>
<path fill="#6571F3" opacity="1.000000" stroke="none" 
	d="
M110.999115,162.540314 
	C103.251541,163.009857 95.499908,163.009857 87.019073,163.009857 
	C87.019073,155.047272 87.019073,147.501434 87.043045,139.489624 
	C94.805702,139.023651 102.544395,139.023651 110.995056,139.023651 
	C110.995056,146.986969 110.995056,154.528885 110.999115,162.540314 
z"/>
<path fill="#6571F3" opacity="1.000000" stroke="none" 
	d="
M50.999119,222.540314 
	C43.251553,223.009842 35.499928,223.009842 27.019068,223.009842 
	C27.019068,215.047256 27.019068,207.501434 27.043030,199.489624 
	C34.805691,199.023651 42.544388,199.023651 50.995060,199.023651 
	C50.995060,206.986954 50.995060,214.528854 50.999119,222.540314 
z"/>
<path fill="#6571F3" opacity="1.000000" stroke="none" 
	d="
M110.999115,222.540314 
	C103.251541,223.009857 95.499908,223.009857 87.019073,223.009857 
	C87.019073,215.047272 87.019073,207.501434 87.043045,199.489624 
	C94.805702,199.023651 102.544395,199.023651 110.995056,199.023651 
	C110.995056,206.986969 110.995056,214.528885 110.999115,222.540314 
z"/>
<path fill="#6571F3" opacity="1.000000" stroke="none" 
	d="
M140.999115,222.540314 
	C133.251816,223.009842 125.500443,223.009842 117.019073,223.009842 
	C117.019073,215.047287 117.019073,207.501434 117.043045,199.489624 
	C124.805702,199.023651 132.544388,199.023651 140.995071,199.023651 
	C140.995071,206.986969 140.995071,214.528870 140.999115,222.540314 
z"/>
<path fill="#6571F3" opacity="1.000000" stroke="none" 
	d="
M230.999115,102.540329 
	C223.251541,103.009872 215.499924,103.009872 207.019058,103.009872 
	C207.019058,95.047287 207.019058,87.501465 207.042999,79.489670 
	C214.805664,79.023712 222.544357,79.023712 230.995071,79.023712 
	C230.995071,86.986961 230.995071,94.528877 230.999115,102.540329 
z"/>
<path fill="#65AF8C" opacity="1.000000" stroke="none" 
	d="
M171.000214,222.545395 
	C163.254257,223.015472 155.503647,223.015472 147.018311,223.015472 
	C147.018311,215.044556 147.018311,207.499634 147.040985,199.488617 
	C154.801788,199.022507 162.539902,199.022507 170.995529,199.022507 
	C170.995529,206.991409 170.995529,214.533356 171.000214,222.545395 
z"/>
<path fill="#6571F3" opacity="1.000000" stroke="none" 
	d="
M110.999107,102.540344 
	C103.251549,103.009880 95.499939,103.009880 87.019066,103.009880 
	C87.019066,95.047272 87.019066,87.501457 87.043007,79.489670 
	C94.805656,79.023712 102.544365,79.023712 110.995056,79.023712 
	C110.995056,86.986961 110.995056,94.528877 110.999107,102.540344 
z"/>
<path fill="#6571F3" opacity="1.000000" stroke="none" 
	d="
M57.454994,103.001205 
	C56.984974,95.250282 56.984974,87.495689 56.984974,78.999138 
	C64.964676,78.999138 72.515686,78.999138 80.535782,78.992058 
	C81.004875,86.742493 81.004875,94.500008 81.004875,102.997536 
	C73.032074,102.997536 65.478539,102.997536 57.454994,103.001205 
z"/>
<path fill="#6571F3" opacity="1.000000" stroke="none" 
	d="
M200.999115,192.540314 
	C193.251816,193.009842 185.500458,193.009842 177.019073,193.009842 
	C177.019073,185.047256 177.019073,177.501434 177.043030,169.489624 
	C184.805191,169.023651 192.543381,169.023651 200.995071,169.023651 
	C200.995071,176.986954 200.995071,184.528870 200.999115,192.540314 
z"/>
<path fill="#6571F3" opacity="1.000000" stroke="none" 
	d="
M170.999115,192.540314 
	C163.251816,193.009842 155.500458,193.009842 147.019073,193.009842 
	C147.019073,185.047256 147.019073,177.501434 147.043030,169.489624 
	C154.805191,169.023651 162.543381,169.023651 170.995071,169.023651 
	C170.995071,176.986954 170.995071,184.528870 170.999115,192.540314 
z"/>
<path fill="#6571F3" opacity="1.000000" stroke="none" 
	d="
M200.999115,132.540298 
	C193.251556,133.009842 185.499939,133.009842 177.019058,133.009842 
	C177.019058,125.047287 177.019058,117.501457 177.042999,109.489670 
	C184.805664,109.023712 192.544357,109.023712 200.995071,109.023712 
	C200.995071,116.986946 200.995071,124.528854 200.999115,132.540298 
z"/>
<path fill="#6571F3" opacity="1.000000" stroke="none" 
	d="
M50.999119,132.540298 
	C43.251556,133.009842 35.499939,133.009842 27.019058,133.009842 
	C27.019058,125.047287 27.019058,117.501457 27.043007,109.489670 
	C34.805656,109.023712 42.544357,109.023712 50.995060,109.023712 
	C50.995060,116.986946 50.995060,124.528847 50.999119,132.540298 
z"/>
<path fill="#65AF8C" opacity="1.000000" stroke="none" 
	d="
M81.000198,132.545395 
	C73.254250,133.015472 65.503616,133.015472 57.018318,133.015472 
	C57.018318,125.044533 57.018318,117.499603 57.041004,109.488571 
	C64.802322,109.022469 72.540955,109.022469 80.995522,109.022469 
	C80.995522,116.991402 80.995522,124.533356 81.000198,132.545395 
z"/>
<path fill="#6571F3" opacity="1.000000" stroke="none" 
	d="
M110.999115,132.540314 
	C103.251541,133.009857 95.499924,133.009857 87.019066,133.009857 
	C87.019066,125.047295 87.019066,117.501465 87.043007,109.489670 
	C94.805656,109.023712 102.544365,109.023712 110.995056,109.023712 
	C110.995056,116.986954 110.995056,124.528870 110.999115,132.540314 
z"/>
<path fill="#6571F3" opacity="1.000000" stroke="none" 
	d="
M170.999115,132.540298 
	C163.251556,133.009842 155.499939,133.009842 147.019058,133.009842 
	C147.019058,125.047287 147.019058,117.501457 147.042999,109.489670 
	C154.805664,109.023712 162.544357,109.023712 170.995071,109.023712 
	C170.995071,116.986946 170.995071,124.528854 170.999115,132.540298 
z"/>
<path fill="#65AF8C" opacity="1.000000" stroke="none" 
	d="
M141.000214,162.545395 
	C133.254257,163.015472 125.503632,163.015472 117.018326,163.015472 
	C117.018326,155.044556 117.018326,147.499634 117.041000,139.488617 
	C124.802307,139.022507 132.540939,139.022507 140.995529,139.022507 
	C140.995529,146.991409 140.995529,154.533356 141.000214,162.545395 
z"/>
</svg>